# xmcd
#
# Track frame offsets:
#	150
#	13968
#	24129
#	39878
#	52711
#	63540
#	78703
#	88534
#	98035
#	113639
#
# Disc length: 1702 seconds
#
# Revision: 0
# Processed by: cddbd v1.5.2PL0 Copyright (c) Steve Scherf et al.
# Submitted via: EasyCDDAExtractor 15.3.0.1
#
DISCID=6b06a40a
DTITLE=Rocio Durcal - Super Exitos De Juan Gabriel Con Rocio Durcal
DYEAR=1979
DGENRE=Latin
TTITLE0=Lagrimas Y Lluvia
TTITLE1=Me Gusta Estar Contigo
TTITLE2=La Muerte Del Palomo
TTITLE3=Ya No Insistas Corazon
TTITLE4=Tu Abandono
TTITLE5=Se Me Olvido Otra Vez
TTITLE6=Ases Y Tercia De Reyes
TTITLE7=Ya No Vuelvo A Molestarte
TTITLE8=Siempre Estoy Pensando En Ti
TTITLE9=Te Voy A Olvidar
EXTD=
EXTT0=
EXTT1=
EXTT2=
EXTT3=
EXTT4=
EXTT5=
EXTT6=
EXTT7=
EXTT8=
EXTT9=
PLAYORDER=
